<?xml version="1.0" encoding="UTF-8"?>
<svg xmlns="http://www.w3.org/2000/svg" viewBox="0 0 1200 630" width="1200" height="630" role="img" aria-label="Villa Mia 2 — restaurant au Mesnil-en-Thelle">
  <defs>
    <linearGradient id="bg" x1="0" y1="0" x2="1" y2="1">
      <stop offset="0%" stop-color="#1f2933"/>
      <stop offset="100%" stop-color="#53301f"/>
    </linearGradient>
    <radialGradient id="glow" cx="82%" cy="8%" r="62%">
      <stop offset="0%" stop-color="#d97345" stop-opacity="0.45"/>
      <stop offset="100%" stop-color="#d97345" stop-opacity="0"/>
    </radialGradient>
    <linearGradient id="accent" x1="0" y1="0" x2="1" y2="0">
      <stop offset="0%" stop-color="#f4b06a"/>
      <stop offset="100%" stop-color="#d97345"/>
    </linearGradient>
  </defs>

  <rect width="1200" height="630" fill="url(#bg)"/>
  <rect width="1200" height="630" fill="url(#glow)"/>

  <g transform="translate(910, 165)" fill="none" stroke="#fff4e8" stroke-width="7" stroke-linecap="round" stroke-linejoin="round" opacity="0.85">
    <circle cx="115" cy="135" r="110"/>
    <circle cx="115" cy="135" r="78" opacity="0.45"/>
    <path d="M5 44 L5 235 M5 44 C-18 44 -18 108 5 108 Z" />
    <path d="M245 44 L245 235 M245 100 Q268 100 268 44 Q245 44 245 100 Z" />
  </g>

  <g font-family="Georgia, serif" fill="#faf7f2">
    <text x="80" y="305" font-size="96" font-weight="700" letter-spacing="-1">Villa Mia 2</text>
    <text x="80" y="382" font-size="42" font-weight="500" fill="#f1dfc7">Restaurant · Le Mesnil-en-Thelle</text>
  </g>

  <rect x="80" y="430" width="210" height="10" rx="5" fill="url(#accent)"/>

  <g font-family="Inter, system-ui, sans-serif" fill="#e6cfb0">
    <text x="80" y="520" font-size="27" font-weight="600" letter-spacing="2">HORAIRES · ADRESSE · APPEL · ITINÉRAIRE</text>
    <text x="80" y="565" font-size="24">Maquette non officielle — informations publiques à confirmer</text>
  </g>
</svg>
