<?xml version="1.0" encoding="UTF-8"?>
<svg xmlns="http://www.w3.org/2000/svg" viewBox="0 0 1200 630" width="1200" height="630" role="img" aria-label="Carte sociale générique">
  <defs>
    <linearGradient id="bg" x1="0" y1="0" x2="1" y2="1">
      <stop offset="0%" stop-color="#1f2933"/>
      <stop offset="100%" stop-color="#3a1d1d"/>
    </linearGradient>
    <radialGradient id="glow" cx="80%" cy="0%" r="60%">
      <stop offset="0%" stop-color="#8a2b2b" stop-opacity="0.55"/>
      <stop offset="100%" stop-color="#8a2b2b" stop-opacity="0"/>
    </radialGradient>
    <linearGradient id="accent" x1="0" y1="0" x2="1" y2="0">
      <stop offset="0%" stop-color="#d97373"/>
      <stop offset="100%" stop-color="#8a2b2b"/>
    </linearGradient>
  </defs>

  <rect width="1200" height="630" fill="url(#bg)"/>
  <rect width="1200" height="630" fill="url(#glow)"/>

  <!-- Decorative tableware glyph (CC0, drawn from scratch) -->
  <g transform="translate(940, 180)" fill="none" stroke="#f1ece3" stroke-width="6" stroke-linecap="round" stroke-linejoin="round" opacity="0.85">
    <circle cx="90" cy="120" r="105"/>
    <circle cx="90" cy="120" r="75" opacity="0.5"/>
    <path d="M-30 30 L-30 210 M-30 30 C-50 30 -50 95 -30 95 Z" />
    <path d="M210 30 L210 210 M210 90 Q230 90 230 30 Q210 30 210 90 Z" />
  </g>

  <!-- Wordmark -->
  <g font-family="Fraunces, Georgia, serif" fill="#faf7f2">
    <text x="80" y="320" font-size="84" font-weight="700" letter-spacing="-1">Local Business</text>
    <text x="80" y="400" font-size="44" font-weight="500" fill="#e6dccb">Boilerplate démo statique</text>
  </g>

  <!-- Accent bar -->
  <rect x="80" y="450" width="180" height="10" rx="5" fill="url(#accent)"/>

  <!-- Footer -->
  <g font-family="Inter, system-ui, sans-serif" fill="#c9b89b">
    <text x="80" y="540" font-size="26" font-weight="600" letter-spacing="3">CUISINE · BAR · CAFÉ</text>
    <text x="80" y="580" font-size="22">Remplacez-moi avec votre propre carte sociale.</text>
  </g>
</svg>
